<svg xmlns="http://www.w3.org/2000/svg" xmlns:xlink="http://www.w3.org/1999/xlink" width="50" height="150">
  <defs>
    <g id="plug">
      <path d="M20.587 10.34h-.676c-.792 0-1.433.59-1.433 1.316v5.57h3.544v-5.57c0-.726-.64-1.316-1.433-1.316zm9.5 0h-.675c-.792 0-1.433.59-1.433 1.316v5.57h3.542v-5.57c0-.726-.64-1.316-1.434-1.316z"/>
      <path d="M25 .597C11.238.597.04 11.793.04 25.557c0 6.643 2.582 12.896 7.27 17.606a25.054 25.054 0 0 0 9.93 6.12 2.406 2.406 0 0 0 3.032-1.538 2.403 2.403 0 0 0-1.538-3.03 20.234 20.234 0 0 1-8.017-4.945A20.023 20.023 0 0 1 4.85 25.556c0-11.112 9.04-20.15 20.15-20.15 11.112 0 20.152 9.038 20.152 20.15 0 5.384-2.094 10.44-5.898 14.246-1.46 1.31-5.083 3.946-7.258 3.946-1.117 0-1.953-.352-2.632-1.107-1.72-1.915-2.097-5.796-2.08-8.498 4.17-.21 7.492-3.65 7.492-7.875v-7.48H15.224v7.48c0 4.142 3.19 7.532 7.247 7.863-.024 3.22.428 8.5 3.31 11.715 1.588 1.774 3.738 2.71 6.216 2.71 4.65 0 9.943-4.696 10.53-5.23l.08-.074c4.74-4.718 7.353-11.002 7.353-17.694C49.96 11.793 38.762.596 25 .596z"/>
    </g>
    <g id="star">
      <path d="M25 0C11.215 0 0 11.216 0 25 0 38.79 11.215 50.005 25 50.005S50 38.788 50 25C50 11.217 38.786 0 25 0zm13.813 23.173l-7.237 5.238 2.787 8.52a1.347 1.347 0 0 1-2.068 1.514l-7.293-5.276-7.293 5.276a1.348 1.348 0 0 1-2.068-1.514l2.787-8.52-7.237-5.236a1.346 1.346 0 0 1 .79-2.437h8.96l2.773-8.48a1.348 1.348 0 0 1 2.577 0l2.774 8.48h8.96a1.346 1.346 0 0 1 .79 2.436z"/>
    </g>
    <g id="umbrella">
      <path d="M11.228 10.04c2.002 0 3.625-1.56 3.625-3.486 0-2.484-3.625-6.37-3.625-6.37S7.603 4.07 7.603 6.554c0 1.925 1.623 3.485 3.625 3.485zm-6.44-5.976C4.79 2.552 2.58.184 2.58.184S.372 2.552.372 4.064c0 1.173.99 2.124 2.208 2.124 1.22 0 2.21-.95 2.21-2.124z"/>
      <path d="M27.865 2.954V2.71c0-.92-.795-1.667-1.775-1.667-.98 0-1.776.746-1.776 1.667v.246c-2.75.2-5.354.872-7.758 1.9.185.577.298 1.15.298 1.697 0 2.983-2.523 5.41-5.625 5.41a5.752 5.752 0 0 1-3.163-.94c-3.366 3.872-5.427 8.83-5.48 14.26.06-3.07 2.664-5.542 5.87-5.542 3.25 0 5.88 2.532 5.88 5.653 0-3.12 2.633-5.652 5.88-5.652a6.02 6.02 0 0 1 3.304.98v22.468c0 3.6 3 6.537 6.722 6.625l.172.002v-.002c3.722-.088 6.72-3.026 6.72-6.626 0-1.327-1.118-2.403-2.5-2.403-1.38 0-2.5 1.076-2.5 2.404 0 .975-.802 1.774-1.806 1.818-1.004-.044-1.807-.843-1.807-1.82v-22.36a6.005 6.005 0 0 1 3.454-1.084c3.247 0 5.88 2.53 5.88 5.652 0-3.12 2.63-5.652 5.878-5.652 3.247 0 5.88 2.53 5.88 5.652 0 .038.018.11.018.11-.002-11.922-9.596-21.683-21.765-22.55z"/>
    </g>
  </defs>

  <use x="0" y="0" xlink:href="#plug" fill="tomato" />
  <use x="0" y="50" xlink:href="#star" fill="goldenrod" />
  <use x="0" y="100" xlink:href="#umbrella" fill="indigo" />
</svg>
