<svg xmlns="http://www.w3.org/2000/svg" viewBox="0 0 64 64"><path fill="gold" d="M32.194 7.106c-13.689 0-24.826 11.137-24.826 24.826 0 13.69 11.137 24.828 24.826 24.828S57.02 45.622 57.02 31.932c.001-13.689-11.136-24.826-24.826-24.826zm13.717 23.011v.001l-7.187 5.2 2.768 8.46c.044.132.067.273.067.417 0 .739-.598 1.339-1.337 1.339-.294 0-.564-.094-.784-.253l-7.243-5.239-7.243 5.239c-.22.159-.49.253-.783.253-.74 0-1.339-.599-1.339-1.339 0-.145.024-.285.068-.417l2.769-8.46-7.187-5.2v-.001c-.336-.242-.554-.637-.554-1.083 0-.739.598-1.337 1.338-1.337h8.897l2.755-8.421c.168-.547.677-.945 1.28-.945.602 0 1.112.398 1.279.945l2.755 8.421h8.897c.739 0 1.338.598 1.338 1.337-.001.446-.219.841-.554 1.083z"/></svg>
